<svg xmlns="http://www.w3.org/2000/svg" viewBox="0 0 1200 630" font-family="Arial, sans-serif">
  <rect width="1200" height="630" fill="#0f172a"/>
  
  <!-- Title -->
  <text x="600" y="45" text-anchor="middle" fill="#22d3ee" font-size="26" font-weight="bold">🎬 Dashboard Netflix — UI/UX Refactor</text>
  <text x="600" y="72" text-anchor="middle" fill="#94a3b8" font-size="14">De lista de arquivos para plataforma de streaming | Mesmo custo, melhor experiência</text>

  <!-- Before/After -->
  <!-- ANTES -->
  <text x="300" y="110" text-anchor="middle" fill="#ef4444" font-size="20" font-weight="bold">❌ ANTES</text>
  
  <rect x="50" y="125" width="500" height="220" rx="8" fill="#1e293b" stroke="#ef4444" stroke-width="1.5"/>
  
  <!-- Table header -->
  <rect x="60" y="135" width="480" height="25" rx="3" fill="#0f172a"/>
  <text x="80" y="152" fill="#94a3b8" font-size="10">☐  Nome</text>
  <text x="280" y="152" fill="#94a3b8" font-size="10">Tamanho</text>
  <text x="380" y="152" fill="#94a3b8" font-size="10">Data</text>
  <text x="470" y="152" fill="#94a3b8" font-size="10">Ações</text>
  
  <!-- Table rows -->
  <rect x="60" y="165" width="480" height="25" rx="2" fill="#0f172a" opacity="0.5"/>
  <text x="80" y="182" fill="#f8fafc" font-size="10">🎥 Bolt Supercao.mp4</text>
  <text x="280" y="182" fill="#94a3b8" font-size="10">580 MB</text>
  <text x="380" y="182" fill="#94a3b8" font-size="10">24/02/26</text>
  <text x="470" y="182" fill="#94a3b8" font-size="10">▶ 📥 🗑️</text>

  <rect x="60" y="195" width="480" height="25" rx="2" fill="#0f172a" opacity="0.3"/>
  <text x="80" y="212" fill="#f8fafc" font-size="10">🎥 Procurando Dory.mp4</text>
  <text x="280" y="212" fill="#94a3b8" font-size="10">1.0 GB</text>
  <text x="380" y="212" fill="#94a3b8" font-size="10">02/03/26</text>
  <text x="470" y="212" fill="#94a3b8" font-size="10">▶ 📥 🗑️</text>

  <rect x="60" y="225" width="480" height="25" rx="2" fill="#0f172a" opacity="0.5"/>
  <text x="80" y="242" fill="#f8fafc" font-size="10">🖼️ IMG_20190210.jpg</text>
  <text x="280" y="242" fill="#94a3b8" font-size="10">363 KB</text>
  <text x="380" y="242" fill="#94a3b8" font-size="10">23/04/26</text>
  <text x="470" y="242" fill="#94a3b8" font-size="10">👁️ 📥 🗑️</text>

  <rect x="60" y="255" width="480" height="25" rx="2" fill="#0f172a" opacity="0.3"/>
  <text x="80" y="272" fill="#f8fafc" font-size="10">🎥 Casamento_Civil.mp4</text>
  <text x="280" y="272" fill="#94a3b8" font-size="10">264 MB</text>
  <text x="380" y="272" fill="#94a3b8" font-size="10">06/05/26</text>
  <text x="470" y="272" fill="#94a3b8" font-size="10">▶ 📥 🗑️</text>

  <text x="300" y="325" text-anchor="middle" fill="#94a3b8" font-size="12">Lista genérica • Sem visual appeal • Gerenciador de arquivos</text>

  <!-- Arrow -->
  <text x="600" y="240" text-anchor="middle" fill="#22d3ee" font-size="50">→</text>

  <!-- DEPOIS -->
  <text x="900" y="110" text-anchor="middle" fill="#22c55e" font-size="20" font-weight="bold">✅ DEPOIS</text>
  
  <rect x="650" y="125" width="500" height="220" rx="8" fill="#1e293b" stroke="#22c55e" stroke-width="1.5"/>
  
  <!-- Carousel header -->
  <text x="680" y="150" fill="#f8fafc" font-size="12" font-weight="bold">📁 Filmes (3)</text>
  
  <!-- Cards -->
  <rect x="670" y="160" width="100" height="60" rx="5" fill="#0f172a" stroke="#a78bfa" stroke-width="1"/>
  <text x="720" y="190" text-anchor="middle" fill="#a78bfa" font-size="18">🎬</text>
  <text x="720" y="215" text-anchor="middle" fill="#f8fafc" font-size="8">Bolt</text>

  <rect x="780" y="160" width="100" height="60" rx="5" fill="#0f172a" stroke="#a78bfa" stroke-width="1"/>
  <text x="830" y="190" text-anchor="middle" fill="#a78bfa" font-size="18">🎬</text>
  <text x="830" y="215" text-anchor="middle" fill="#f8fafc" font-size="8">Dory</text>

  <rect x="890" y="160" width="100" height="60" rx="5" fill="#0f172a" stroke="#a78bfa" stroke-width="1"/>
  <text x="940" y="190" text-anchor="middle" fill="#a78bfa" font-size="18">🎬</text>
  <text x="940" y="215" text-anchor="middle" fill="#f8fafc" font-size="8">Casamento</text>

  <text x="1010" y="190" fill="#22d3ee" font-size="16">→</text>

  <!-- Second row -->
  <text x="680" y="245" fill="#f8fafc" font-size="12" font-weight="bold">📁 Anime (104)</text>
  
  <rect x="670" y="255" width="100" height="60" rx="5" fill="#0f172a" stroke="#22c55e" stroke-width="1"/>
  <text x="720" y="285" text-anchor="middle" fill="#22c55e" font-size="18">🎬</text>
  <text x="720" y="310" text-anchor="middle" fill="#f8fafc" font-size="8">Tifa</text>

  <rect x="780" y="255" width="100" height="60" rx="5" fill="#0f172a" stroke="#22c55e" stroke-width="1"/>
  <text x="830" y="285" text-anchor="middle" fill="#22c55e" font-size="18">🎬</text>
  <text x="830" y="310" text-anchor="middle" fill="#f8fafc" font-size="8">Sadako</text>

  <rect x="890" y="255" width="100" height="60" rx="5" fill="#0f172a" stroke="#22c55e" stroke-width="1"/>
  <text x="940" y="285" text-anchor="middle" fill="#22c55e" font-size="18">🎬</text>
  <text x="940" y="310" text-anchor="middle" fill="#f8fafc" font-size="8">Raven</text>

  <text x="1010" y="285" fill="#22d3ee" font-size="16">→</text>

  <text x="900" y="340" text-anchor="middle" fill="#94a3b8" font-size="12">Carrosséis por pasta • Hover effects • Streaming feel</text>

  <!-- Features section -->
  <rect x="50" y="370" width="1100" height="230" rx="10" fill="#1e293b"/>
  <text x="600" y="400" text-anchor="middle" fill="#f8fafc" font-size="16" font-weight="bold">Funcionalidades do Carrossel</text>

  <!-- Feature list -->
  <text x="150" y="435" fill="#22d3ee" font-size="12">→</text>
  <text x="170" y="435" fill="#f8fafc" font-size="12">Setas laterais (somem quando não tem mais)</text>
  
  <text x="150" y="460" fill="#22d3ee" font-size="12">→</text>
  <text x="170" y="460" fill="#f8fafc" font-size="12">Cards com gradiente por tipo (roxo=vídeo, verde=imagem)</text>
  
  <text x="150" y="485" fill="#22d3ee" font-size="12">→</text>
  <text x="170" y="485" fill="#f8fafc" font-size="12">Hover: play + delete + share aparecem</text>
  
  <text x="150" y="510" fill="#22d3ee" font-size="12">→</text>
  <text x="170" y="510" fill="#f8fafc" font-size="12">Modo seleção para bulk delete</text>

  <text x="650" y="435" fill="#22d3ee" font-size="12">→</text>
  <text x="670" y="435" fill="#f8fafc" font-size="12">Filtros integrados (busca, tipo, pasta)</text>
  
  <text x="650" y="460" fill="#22d3ee" font-size="12">→</text>
  <text x="670" y="460" fill="#f8fafc" font-size="12">Delete pasta inteira (1 clique)</text>
  
  <text x="650" y="485" fill="#22d3ee" font-size="12">→</text>
  <text x="670" y="485" fill="#f8fafc" font-size="12">Componente reutilizável (dashboard + público)</text>
  
  <text x="650" y="510" fill="#22d3ee" font-size="12">→</text>
  <text x="670" y="510" fill="#f8fafc" font-size="12">Zero libs externas (scroll nativo)</text>

  <!-- Bottom stats -->
  <text x="200" y="560" text-anchor="middle" fill="#22c55e" font-size="28" font-weight="bold">-200</text>
  <text x="200" y="580" text-anchor="middle" fill="#94a3b8" font-size="11">linhas de código</text>

  <text x="450" y="560" text-anchor="middle" fill="#a78bfa" font-size="28" font-weight="bold">0</text>
  <text x="450" y="580" text-anchor="middle" fill="#94a3b8" font-size="11">libs adicionais</text>

  <text x="700" y="560" text-anchor="middle" fill="#22d3ee" font-size="28" font-weight="bold">2</text>
  <text x="700" y="580" text-anchor="middle" fill="#94a3b8" font-size="11">contextos (privado + público)</text>

  <text x="950" y="560" text-anchor="middle" fill="#f59e0b" font-size="28" font-weight="bold">$0</text>
  <text x="950" y="580" text-anchor="middle" fill="#94a3b8" font-size="11">custo adicional</text>

  <!-- Footer -->
  <text x="600" y="618" text-anchor="middle" fill="#64748b" font-size="11">Next.js 14 • React • TailwindCSS • Lucide Icons • MidiaFlow v4.10</text>
</svg>
